<svg xmlns="http://www.w3.org/2000/svg" xmlns:xlink="http://www.w3.org/1999/xlink" viewBox="0 0 216 216"><defs><style>.cls-1,.cls-10,.cls-15,.cls-19,.cls-3{fill:#fff;}.cls-1,.cls-10,.cls-14,.cls-15,.cls-19,.cls-22,.cls-5,.cls-7,.cls-8,.cls-9{stroke:#231f20;}.cls-1,.cls-11,.cls-12,.cls-13,.cls-5,.cls-7,.cls-8,.cls-9{stroke-miterlimit:10;}.cls-1,.cls-10,.cls-19,.cls-5,.cls-8{stroke-width:3px;}.cls-14,.cls-2,.cls-22,.cls-5,.cls-7,.cls-8,.cls-9{fill:none;}.cls-4{clip-path:url(#clip-path);}.cls-10,.cls-15,.cls-22,.cls-5,.cls-7{stroke-linecap:round;}.cls-6{fill:#231f20;}.cls-11,.cls-12,.cls-13,.cls-7,.cls-9{stroke-width:1.5px;}.cls-10,.cls-14,.cls-15,.cls-19,.cls-22{stroke-linejoin:round;}.cls-11{fill:#d86259;stroke:#ce3a2c;}.cls-12{fill:#a977b4;stroke:#9157a3;}.cls-13{fill:#5dae49;stroke:#349a46;}.cls-14,.cls-22{stroke-width:6px;}.cls-15{stroke-width:1.77px;}.cls-16{isolation:isolate;}.cls-17{clip-path:url(#clip-path-2);}.cls-18{clip-path:url(#clip-path-3);}.cls-20{clip-path:url(#clip-path-4);}.cls-21{clip-path:url(#clip-path-5);}</style><clipPath id="clip-path"><polygon class="cls-1" points="108 9.55 67.52 18.16 34.04 42.48 13.35 78.32 9.03 119.48 21.81 158.84 49.5 189.59 87.31 206.42 128.69 206.42 166.5 189.59 194.19 158.84 206.97 119.48 202.65 78.32 181.96 42.48 148.48 18.16 108 9.55"/></clipPath><clipPath id="clip-path-2"><polygon class="cls-2" points="63.99 77.17 64.03 70.95 140.71 77.66 140.68 83.88 63.99 77.17"/></clipPath><clipPath id="clip-path-3"><polygon class="cls-2" points="136.52 128.1 137.27 48.65 152.87 50.24 152.12 129.69 136.52 128.1"/></clipPath><clipPath id="clip-path-4"><polygon class="cls-2" points="61.43 70.95 61.49 60.13 142.1 67.18 142.04 78 61.43 70.95"/></clipPath><clipPath id="clip-path-5"><polygon class="cls-2" points="60.7 121.67 61.1 44.62 148.48 52.26 148.07 129.32 60.7 121.67"/></clipPath></defs><title>Communication Models</title><g id="Layer_5" data-name="Layer 5"><polygon class="cls-3" points="108 9.55 67.52 18.16 34.04 42.48 13.35 78.32 9.03 119.48 21.81 158.84 49.5 189.59 87.31 206.42 128.69 206.42 166.5 189.59 194.19 158.84 206.97 119.48 202.65 78.32 181.96 42.48 148.48 18.16 108 9.55"/><g class="cls-4"><line class="cls-5" x1="108" y1="-0.36" x2="108" y2="27.25"/><line class="cls-5" x1="85.47" y1="2.01" x2="91.21" y2="29.01"/><line class="cls-5" x1="63.93" y1="9.01" x2="75.16" y2="34.23"/><line class="cls-5" x1="44.31" y1="20.33" x2="60.54" y2="42.67"/><line class="cls-5" x1="27.48" y1="35.49" x2="48" y2="53.96"/><line class="cls-5" x1="14.17" y1="53.81" x2="38.08" y2="67.62"/><line class="cls-5" x1="4.95" y1="74.51" x2="31.21" y2="83.04"/><line class="cls-5" x1="0.24" y1="96.66" x2="27.7" y2="99.55"/><line class="cls-5" x1="0.24" y1="119.31" x2="27.7" y2="116.43"/><line class="cls-5" x1="4.95" y1="141.47" x2="31.21" y2="132.94"/><line class="cls-5" x1="14.17" y1="162.16" x2="38.08" y2="148.36"/><line class="cls-5" x1="27.48" y1="180.49" x2="48" y2="162.01"/><line class="cls-5" x1="44.31" y1="195.64" x2="60.54" y2="173.31"/><line class="cls-5" x1="63.93" y1="206.97" x2="75.16" y2="181.75"/><line class="cls-5" x1="85.47" y1="213.97" x2="91.21" y2="186.96"/><line class="cls-5" x1="108" y1="216.34" x2="108" y2="188.73"/><line class="cls-5" x1="130.53" y1="213.97" x2="124.79" y2="186.96"/><line class="cls-5" x1="152.07" y1="206.97" x2="140.84" y2="181.75"/><line class="cls-5" x1="171.69" y1="195.64" x2="155.46" y2="173.31"/><line class="cls-5" x1="188.52" y1="180.49" x2="168" y2="162.01"/><line class="cls-5" x1="201.83" y1="162.16" x2="177.92" y2="148.36"/><line class="cls-5" x1="211.05" y1="141.47" x2="184.79" y2="132.94"/><line class="cls-5" x1="215.76" y1="119.31" x2="188.3" y2="116.43"/><line class="cls-5" x1="215.76" y1="96.66" x2="188.3" y2="99.55"/><line class="cls-5" x1="211.05" y1="74.51" x2="184.79" y2="83.04"/><line class="cls-5" x1="201.83" y1="53.81" x2="177.92" y2="67.62"/><line class="cls-5" x1="188.52" y1="35.49" x2="168" y2="53.96"/><line class="cls-5" x1="171.69" y1="20.33" x2="155.46" y2="42.67"/><line class="cls-5" x1="152.07" y1="9.01" x2="140.84" y2="34.23"/><line class="cls-5" x1="130.53" y1="2.01" x2="124.79" y2="29.01"/><circle class="cls-6" cx="108" cy="107.99" r="1.68"/><line class="cls-7" x1="96.94" y1="0.2" x2="99.76" y2="27.67"/><line class="cls-7" x1="74.78" y1="4.86" x2="83.24" y2="31.14"/><line class="cls-7" x1="54.06" y1="14.02" x2="67.81" y2="37.97"/><line class="cls-7" x1="35.7" y1="27.29" x2="54.13" y2="47.85"/><line class="cls-7" x1="20.5" y1="44.08" x2="42.8" y2="60.37"/><line class="cls-7" x1="9.13" y1="63.67" x2="34.32" y2="74.97"/><line class="cls-7" x1="2.07" y1="85.2" x2="29.07" y2="91.01"/><line class="cls-7" x1="-0.35" y1="107.72" x2="27.26" y2="107.79"/><line class="cls-7" x1="1.96" y1="130.25" x2="28.98" y2="124.58"/><line class="cls-7" x1="8.91" y1="151.81" x2="34.16" y2="140.64"/><line class="cls-7" x1="20.19" y1="171.46" x2="42.56" y2="155.28"/><line class="cls-7" x1="35.3" y1="188.33" x2="53.83" y2="167.85"/><line class="cls-7" x1="53.59" y1="201.69" x2="67.46" y2="177.81"/><line class="cls-7" x1="74.26" y1="210.95" x2="82.86" y2="184.71"/><line class="cls-7" x1="96.41" y1="215.72" x2="99.36" y2="188.26"/><line class="cls-7" x1="119.06" y1="215.77" x2="116.24" y2="188.31"/><line class="cls-7" x1="141.22" y1="211.12" x2="132.76" y2="184.84"/><line class="cls-7" x1="161.94" y1="201.96" x2="148.19" y2="178.01"/><line class="cls-7" x1="180.3" y1="188.69" x2="161.87" y2="168.12"/><line class="cls-7" x1="195.5" y1="171.89" x2="173.2" y2="155.61"/><line class="cls-7" x1="206.87" y1="152.3" x2="181.68" y2="141.01"/><line class="cls-7" x1="213.93" y1="130.78" x2="186.93" y2="124.97"/><line class="cls-7" x1="216.35" y1="108.26" x2="188.74" y2="108.19"/><line class="cls-7" x1="214.04" y1="85.73" x2="187.02" y2="91.4"/><line class="cls-7" x1="207.09" y1="64.17" x2="181.84" y2="75.33"/><line class="cls-7" x1="195.81" y1="44.52" x2="173.44" y2="60.69"/><line class="cls-7" x1="180.7" y1="27.65" x2="162.17" y2="48.12"/><line class="cls-7" x1="162.41" y1="14.29" x2="148.54" y2="38.17"/><line class="cls-7" x1="141.74" y1="5.03" x2="133.14" y2="31.26"/><line class="cls-7" x1="119.59" y1="0.26" x2="116.64" y2="27.71"/><circle class="cls-6" cx="108" cy="107.99" r="1.68"/></g><polygon class="cls-8" points="108 9.55 67.52 18.16 34.04 42.48 13.35 78.32 9.03 119.48 21.81 158.84 49.5 189.59 87.31 206.42 128.69 206.42 166.5 189.59 194.19 158.84 206.97 119.48 202.65 78.32 181.96 42.48 148.48 18.16 108 9.55"/><circle class="cls-1" cx="108.33" cy="108.57" r="90.75"/><path class="cls-6" d="M42.58,54.6l2.63-3a2.59,2.59,0,0,1,3.84-.35,2.56,2.56,0,0,1,.15,3.83l-1.27,1.46,2,1.79-1.36,1.55Zm3.76-1.67-1.09,1.26,1.36,1.18,1.09-1.25a.88.88,0,0,0,0-1.31A.9.9,0,0,0,46.34,52.93Z"/><path class="cls-6" d="M49,47.51l4.32-4,1.18,1.28-2.8,2.57.9,1,2.74-2.52,1.18,1.29-2.73,2.52,1,1.06,2.79-2.58,1.18,1.28-4.31,4Z"/><path class="cls-6" d="M58.2,42l-1.8,1.34-1.08-1.45L60.57,38l1.07,1.45-1.79,1.33,3.71,5L61.9,47Z"/><path class="cls-6" d="M68.32,39.4l-.91.53,1.37,2.34-1.79,1L63,36.4l3.46-2a2.58,2.58,0,0,1,3.75.89A2.41,2.41,0,0,1,70,38.15l2.89,1.72-2,1.19ZM67,36l-1.41.82.91,1.56,1.41-.83a.92.92,0,0,0,.41-1.28A.94.94,0,0,0,67,36Z"/><path class="cls-6" d="M75.06,29.92a4.14,4.14,0,1,1-2.31,5.49A4.07,4.07,0,0,1,75.06,29.92Zm.72,1.68a2.32,2.32,0,1,0,2.91,1.27A2.15,2.15,0,0,0,75.78,31.6Z"/><path class="cls-6" d="M81.83,27.45l2-.59,1.78,6,3.08-.92.52,1.73-5.07,1.51Z"/><path class="cls-6" d="M89.7,25.26l5.76-1.1.33,1.71-3.74.71.26,1.31,3.65-.7.33,1.72-3.65.7L92.91,31l3.73-.71L97,32l-5.76,1.1Z"/><path class="cls-6" d="M98.51,23.72l2.1-.15.34,4.68a1.61,1.61,0,1,0,3.21-.23l-.34-4.68,2.1-.15.34,4.73c.15,2-.89,3.47-3.45,3.66s-3.81-1.14-4-3.11Z"/><path class="cls-6" d="M116.26,26.15l-2.37,5.26-.91-.05-1.67-5.52L111,31.23l-2.06-.13.5-8,2.87.18,1.37,4.63,2-4.42,2.86.18-.51,8-2.06-.13Z"/><path class="cls-6" d="M132.6,29.4l-3.38,4.67-.88-.24-.52-5.74-1.43,5.21-2-.55L126.52,25l2.76.75.41,4.82,2.82-3.93,2.77.76-2.12,7.71-2-.54Z"/><path class="cls-6" d="M142.17,30.07a4.14,4.14,0,1,1-5.58,2.09A4.06,4.06,0,0,1,142.17,30.07Zm-.73,1.67a2.32,2.32,0,1,0,1.07,3A2.15,2.15,0,0,0,141.44,31.74Z"/><path class="cls-6" d="M148.72,33.3,151.6,35c2.16,1.29,2.94,3.52,1.67,5.66s-3.62,2.5-5.77,1.22l-2.89-1.74Zm-.31,7.05a2.12,2.12,0,0,0,3-.75,2.05,2.05,0,0,0-.76-3l-1.13-.67-2.26,3.78Z"/><path class="cls-6" d="M157.69,39l4.66,3.57-1.06,1.38-3-2.31-.81,1,2.95,2.27-1.07,1.39-3-2.27-.87,1.15,3,2.31-1.06,1.38-4.65-3.57Z"/><path class="cls-6" d="M164.61,44.49l1.5,1.41-4.24,4.52,2.34,2.2L163,53.93l-3.85-3.61Z"/><path class="cls-6" d="M166.79,54.06a3.6,3.6,0,0,0,.88,2.63c.46.53,1,.66,1.26.41s.14-.81-.28-1.57c-.67-1.17-1.62-2.79-.19-4,1-.88,2.64-.78,4,.77a4.9,4.9,0,0,1,1.29,3.18l-1.86.12a3.74,3.74,0,0,0-.85-2.25c-.45-.51-.83-.53-1.1-.3s-.1.74.36,1.52c.65,1.18,1.56,2.81.19,4-1.21,1.05-2.8.85-4.21-.77a4.91,4.91,0,0,1-1.37-3.52Z"/><circle class="cls-8" cx="108.07" cy="108.11" r="72.25"/><circle class="cls-2" cx="108.29" cy="107.45" r="72.25"/><path class="cls-6" d="M45.57,153.73l1,1.3-3.91,3,1.54,2-1.13.86-2.53-3.33Z"/><path class="cls-6" d="M47.69,164.78l-1.76-2-.93.4-1.19-1.32,6.3-2.45L51.49,161l-3.12,6-1.18-1.32Zm-.45-2.57,1.18,1.33,1.32-2.38Z"/><path class="cls-6" d="M53.32,166.42l-2.6,2.81-1.2-1.11,4.29-4.65,1.24,1.14L54.46,169l2.48-2.67,1.21,1.11-4.3,4.65-1.16-1.07Z"/><path class="cls-6" d="M59.48,168.56l1.3,1-3,3.87,2,1.56-.87,1.13-3.31-2.57Z"/><path class="cls-6" d="M163.93,169.91l-2,1.74.39.93L161,173.76l-2.38-6.34,1.55-1.36,6,3.19-1.34,1.17Zm-2.57.42,1.34-1.17-2.37-1.35Z"/><path class="cls-6" d="M165.64,164.3l2.78,2.62-1.12,1.19-4.6-4.34,1.16-1.22,4.41.63-2.65-2.5,1.13-1.2,4.6,4.35L170.27,165Z"/><path class="cls-6" d="M171.4,160.46a2.88,2.88,0,0,0,1.91-1.08c.35-.44.38-.85.14-1s-.65,0-1.18.45c-.81.69-1.93,1.68-3.1.75-.84-.66-1-1.94,0-3.21a3.86,3.86,0,0,1,2.28-1.48l.37,1.42a3,3,0,0,0-1.62,1c-.34.43-.3.73-.08.9s.59,0,1.13-.5c.82-.69,2-1.64,3.08-.75s1.07,2.05,0,3.39a3.87,3.87,0,0,1-2.53,1.58Z"/><path class="cls-6" d="M171.71,153.11l.93-1.35,5.2,3.6-.93,1.35Z"/><path class="cls-9" d="M176.54,57.5a85.53,85.53,0,0,1,4.86,95.7"/><path class="cls-9" d="M36.52,155.35a85.53,85.53,0,0,1,3.67-98.07"/><path class="cls-9" d="M173,59.94a81.23,81.23,0,0,1,4.73,91"/><path class="cls-9" d="M40.24,153.23a81.21,81.21,0,0,1,3.39-93.4"/><path class="cls-9" d="M169.82,62.43a77.17,77.17,0,0,1,4.56,86.27"/><path class="cls-9" d="M43.75,151.18a77.17,77.17,0,0,1,3-88.78"/><path class="cls-9" d="M160.54,176.23a85.5,85.5,0,0,1-99.72,3.39"/><path class="cls-9" d="M157.87,172.89a81.22,81.22,0,0,1-94.92,3"/><path class="cls-9" d="M155.5,169.51a77.19,77.19,0,0,1-90.34,3.06"/><path class="cls-10" d="M105.35,180.33A72.29,72.29,0,0,1,94.14,179c-2.37,9.68-5.07,20.7-6.73,27.43h41.31c-.83-3.35-1.91-7.77-3.09-12.56s-2.44-10-3.63-14.83A72.72,72.72,0,0,1,105.35,180.33Z"/><circle class="cls-11" cx="102.93" cy="197.66" r="3.75"/><circle class="cls-12" cx="113.2" cy="197.66" r="3.75"/><circle class="cls-13" cx="108.07" cy="189.08" r="3.75"/><circle class="cls-2" cx="107.44" cy="108.33" r="72.25"/><line class="cls-14" x1="85.55" y1="71.73" x2="85.55" y2="123.65"/><polygon class="cls-15" points="65.87 111.76 65.73 142.8 99.76 162.94 88.68 125.34 65.87 111.76"/><polygon class="cls-15" points="76.56 105.52 65.87 111.76 88.68 125.34 99.41 118.36 76.56 105.52"/><polygon class="cls-15" points="100.27 163.2 111.61 156.96 99.41 118.36 88.68 125.34 100.27 163.2"/><g class="cls-16"><g class="cls-17"><path class="cls-3" d="M77.27,73.21a5,5,0,0,0,3.93,3.57A4,4,0,0,0,85.14,74l-7.87-.78"/><path class="cls-6" d="M64.74,71c-.39,0-.71.35-.72.88a.93.93,0,0,0,.7,1L76,74c1,2.58,2.92,4.45,5.16,4.64s4.15-1.28,5.16-3.62L140,80.38c.39,0,.71-.36.72-.88a1,1,0,0,0-.69-1L85.93,73.12a.63.63,0,0,0-.64.5l-.15.37a4,4,0,0,1-3.94,2.79,5,5,0,0,1-3.93-3.57c0-.14-.1-.27-.14-.41a.82.82,0,0,0-.64-.62L64.74,71"/></g></g><polyline class="cls-10" points="133.81 161.71 115.85 77.42 108.51 77.42 111.61 174.76"/><line class="cls-9" x1="128.03" y1="137.45" x2="111.61" y2="156.96"/><line class="cls-9" x1="110.8" y1="146.39" x2="129.29" y2="145.86"/><line class="cls-9" x1="130.12" y1="146.39" x2="112.18" y2="166.8"/><line class="cls-9" x1="111.61" y1="154.96" x2="132.53" y2="153.69"/><line class="cls-9" x1="125.96" y1="127.95" x2="111.75" y2="145.86"/><line class="cls-9" x1="111.61" y1="135.76" x2="127.71" y2="136.39"/><line class="cls-9" x1="124.28" y1="117.67" x2="110.32" y2="135.58"/><line class="cls-9" x1="110.18" y1="125.48" x2="126.28" y2="126.1"/><line class="cls-9" x1="122.13" y1="108.15" x2="109.77" y2="124.55"/><line class="cls-9" x1="110.29" y1="114.74" x2="124.31" y2="117.44"/><line class="cls-9" x1="109.77" y1="104.67" x2="122.52" y2="107.22"/><line class="cls-9" x1="109.03" y1="93.55" x2="120.04" y2="97.29"/><line class="cls-9" x1="117.3" y1="88.77" x2="109.34" y2="103.57"/><g class="cls-16"><g class="cls-18"><path class="cls-3" d="M142.41,52.16h-.16l-3.89,2.1-.45-1.39-.85,72.29,3.26-2a119.07,119.07,0,0,0,10.1-46.44c.13-13.5-2.27-19.49-4.3-22.14a5.53,5.53,0,0,0-3.71-2.46"/><path class="cls-6" d="M142.42,49.18a2.27,2.27,0,0,0-.6,0,.85.85,0,0,0-.31.09l-4.07,2.19.47,1.41.45,1.39,3.89-2.1h.16a5.53,5.53,0,0,1,3.71,2.46c2,2.65,4.43,8.64,4.3,22.14a119.07,119.07,0,0,1-10.1,46.44l-3.26,2-.52.3,1,2.76,4.05-2.41a1.22,1.22,0,0,0,.43-.49A119.63,119.63,0,0,0,152.62,77c.11-11.82-1.6-20.08-5.1-24.56-2-2.59-4.1-3.14-5.1-3.24"/></g></g><line class="cls-9" x1="120.04" y1="98.53" x2="109.77" y2="113.51"/><line class="cls-7" x1="139.2" y1="122.67" x2="142.5" y2="120.75"/><line class="cls-9" x1="144.76" y1="110.15" x2="144.76" y2="170.16"/><rect class="cls-19" x="141.77" y="139.35" width="6.63" height="15.11"/><g class="cls-16"><g class="cls-20"><path class="cls-3" d="M61.93,69.66h0m80.13,2.61h0M83.29,65c-1.66-.14-3.14,1.07-3.77,3.09a1.07,1.07,0,0,1-1,.85h0l-10.7-1-3.12,1.82,42.63,1.39L88,69.68a1.32,1.32,0,0,1-1-1c-.62-2.09-2.08-3.52-3.72-3.67"/><path class="cls-6" d="M83.31,62c-2.31-.2-4.4,1.29-5.51,3.87l-10.26-1h-.06A.7.7,0,0,0,67,65l-5.59,3.23.48,1.39h0L62.42,71l2.23-1.29,3.12-1.82,10.7,1h0a1.07,1.07,0,0,0,1-.85c.63-2,2.11-3.23,3.77-3.09s3.1,1.58,3.72,3.67a1.32,1.32,0,0,0,1,1l19.24,1.46,34.78,2.63v-1.5h0V70.78l-53.33-4c-1.1-2.7-3.16-4.51-5.42-4.71"/></g></g><g class="cls-16"><g class="cls-21"><path class="cls-3" d="M138.59,54.45l-.12,21.18c0,.83-.5,1.45-1.1,1.4l-54-4.09h0a1.29,1.29,0,0,1-1-1c-.63-2.07-2.09-3.51-3.72-3.65s-3.15,1.07-3.78,3.08a1.07,1.07,0,0,1-1,.86l-10.61-.81v2.12L73.83,74.6a1.26,1.26,0,0,1,1,1c.64,2.06,2.09,3.48,3.71,3.62s3-1,3.71-2.88a1,1,0,0,1,1-.79h0l54.07,5.38a1.49,1.49,0,0,1,1.1,1.58L138.23,121a124.67,124.67,0,0,0,7.89-42.14c.07-13.59-2.4-19.56-4.49-22.16a6,6,0,0,0-3-2.21"/><path class="cls-6" d="M83.33,72.94h0l54,4.09c.6,0,1.1-.57,1.1-1.4l.12-21.18a6,6,0,0,1,3,2.21c2.09,2.6,4.56,8.57,4.49,22.16A124.67,124.67,0,0,1,138.23,121l.21-38.47a1.49,1.49,0,0,0-1.1-1.58L83.27,75.53h0a1,1,0,0,0-1,.79c-.67,1.89-2.12,3-3.71,2.88s-3.07-1.56-3.71-3.62a1.26,1.26,0,0,0-1-1L63.18,73.54V71.42l10.61.81a1.07,1.07,0,0,0,1-.86c.63-2,2.12-3.23,3.78-3.08s3.09,1.58,3.72,3.65a1.29,1.29,0,0,0,1,1m54.59-21.6a4.09,4.09,0,0,0-.6,0,1.31,1.31,0,0,0-.95,1.4L136.26,74,84,70c-1.09-2.7-3.15-4.51-5.42-4.71s-4.4,1.29-5.51,3.88l-11-.83c-.62,0-1.11.58-1.12,1.39l0,5.08A1.49,1.49,0,0,0,62,76.42l11.08,1.09c1.1,2.68,3.15,4.48,5.4,4.68s4.25-1.2,5.39-3.6l52.3,5.19-.23,43a1.66,1.66,0,0,0,.8,1.51.67.67,0,0,0,.3.08,1,1,0,0,0,.95-.62A123,123,0,0,0,148.34,79c.06-11.83-1.7-20.07-5.25-24.5a7.6,7.6,0,0,0-5.17-3.18"/></g></g><line class="cls-22" x1="78.38" y1="73.98" x2="78.38" y2="132.39"/></g></svg>